<?xml version="1.0" encoding="utf-8"?>
<!-- Generator: Adobe Illustrator 16.0.0, SVG Export Plug-In . SVG Version: 6.00 Build 0)  -->
<!DOCTYPE svg PUBLIC "-//W3C//DTD SVG 1.1//EN" "http://www.w3.org/Graphics/SVG/1.1/DTD/svg11.dtd">
<svg version="1.1" id="Layer_1" xmlns="http://www.w3.org/2000/svg" xmlns:xlink="http://www.w3.org/1999/xlink" x="0px" y="0px"
	 width="64px" height="64px" viewBox="1.083 1.083 64 64" enable-background="new 1.083 1.083 64 64" xml:space="preserve">
<g>
	<path fill="#75B798" d="M45.206,25.149c0,6.646-5.389,12.034-12.033,12.034c-6.646,0-12.033-5.388-12.033-12.034
		c0-6.645,5.388-12.033,12.033-12.033C39.817,13.116,45.206,18.505,45.206,25.149z"/>
	<path fill="#75B798" d="M1.083,33.173c0-17.724,14.366-32.09,32.09-32.09c17.722,0,32.09,14.366,32.09,32.09
		c0,17.722-14.368,32.09-32.09,32.09C15.449,65.263,1.083,50.895,1.083,33.173z M33.173,5.094c-15.508,0-28.078,12.573-28.077,28.08
		c0,6.368,2.166,12.551,6.144,17.529c2.848-4.587,9.117-9.507,21.933-9.507c12.817,0,19.081,4.911,21.933,9.507
		c9.68-12.117,7.71-29.783-4.407-39.465C45.725,7.26,39.542,5.094,33.173,5.094z"/>
</g>
</svg>
